<?xml version="1.0" standalone="no"?>
<!DOCTYPE svg PUBLIC "-//W3C//DTD SVG 20010904//EN"
        "http://www.w3.org/TR/2001/REC-SVG-20010904/DTD/svg10.dtd">
<svg version="1.0" xmlns="http://www.w3.org/2000/svg"
     width="840.000000pt" height="867.000000pt" viewBox="0 0 840.000000 867.000000"
     preserveAspectRatio="xMidYMid meet">

    <g transform="translate(0.000000,867.000000) scale(0.100000,-0.100000)"
       stroke="none">
        <path d="M4507 8650 c-74 -13 -172 -64 -233 -122 -102 -97 -144 -199 -144
-354 0 -52 -3 -94 -6 -94 -3 0 -49 27 -103 60 -294 181 -659 308 -1021 356
-169 22 -484 22 -650 0 -316 -42 -596 -130 -870 -272 -762 -396 -1276 -1140
-1381 -1999 -18 -145 -15 -464 5 -615 47 -351 166 -704 330 -976 20 -32 36
-62 36 -65 0 -3 -28 -9 -61 -12 -42 -4 -85 -17 -135 -41 -114 -57 -190 -142
-238 -265 l-21 -56 -3 -1415 c-2 -1003 0 -1434 8 -1480 31 -181 163 -326 339
-372 60 -15 154 -17 1031 -18 l965 -1 325 -370 c451 -513 454 -517 501 -529
90 -24 179 30 198 121 7 30 11 193 11 414 l0 365 683 0 c448 0 704 4 743 11
165 30 296 144 356 311 l23 63 3 793 3 792 179 0 180 0 0 -391 c0 -340 2 -395
16 -425 33 -70 109 -104 184 -84 41 10 89 55 490 456 l445 444 635 0 c692 0
720 2 823 57 116 62 212 195 236 327 15 84 15 4928 0 5012 -34 187 -186 339
-373 373 -71 13 -3432 13 -3509 1z m3499 -336 c15 -11 37 -33 48 -48 l21 -27
3 -2456 2 -2456 -21 -43 c-15 -31 -32 -48 -63 -63 -41 -21 -56 -21 -719 -21
-559 0 -683 -2 -710 -14 -18 -8 -176 -158 -352 -335 -176 -177 -323 -321 -327
-321 -4 0 -8 128 -10 284 -3 269 -4 286 -24 312 -11 15 -33 37 -48 48 -27 21
-39 21 -692 24 l-664 2 0 421 0 420 109 119 c305 332 504 686 615 1094 239
873 -3 1815 -636 2472 l-88 91 0 210 c0 202 1 211 23 244 12 19 38 42 57 52
33 16 132 17 1742 15 1706 -3 1707 -3 1734 -24z m-5016 -139 c743 -104 1382
-566 1720 -1244 209 -419 281 -897 205 -1365 -8 -54 -18 -102 -21 -107 -4 -7
19 -15 100 -33 47 -11 25 -14 -39 -5 -33 4 -61 7 -63 5 -5 -6 -51 -180 -48
-183 1 -2 27 -12 57 -22 63 -23 55 -26 -16 -8 l-50 13 -41 -106 c-175 -446
-478 -820 -879 -1082 -357 -234 -737 -353 -1170 -365 -268 -8 -498 22 -740 97
-73 22 -110 29 -137 25 -26 -5 -135 -73 -365 -230 -180 -124 -328 -223 -330
-222 -1 2 29 150 67 330 39 180 70 348 70 375 0 60 -15 82 -120 174 -579 509
-858 1226 -769 1983 98 832 667 1551 1464 1850 182 68 439 123 645 139 94 7
349 -4 460 -19z m-2151 -4063 l138 -138 -103 -484 c-57 -267 -104 -501 -104
-520 0 -47 37 -109 80 -131 47 -26 116 -24 160 2 19 12 232 156 472 321 l438
299 72 -20 c499 -140 1060 -118 1560 59 133 48 375 164 493 238 l80 50 5 -403
c5 -388 6 -405 26 -431 11 -15 33 -37 48 -48 26 -20 44 -21 349 -26 l322 -5 0
-772 c0 -764 0 -772 -21 -799 -11 -15 -33 -37 -48 -48 -27 -21 -39 -21 -834
-26 l-807 -5 -33 -23 c-60 -43 -62 -54 -62 -342 0 -143 -4 -260 -9 -260 -4 0
-125 132 -267 294 -144 163 -275 303 -295 315 -37 21 -38 21 -1040 21 -992 0
-1003 0 -1045 21 -31 15 -48 32 -63 63 -21 42 -21 49 -21 1424 0 1493 -3 1419
52 1470 37 34 69 40 201 41 l118 1 138 -138z"/>
        <path d="M6081 6808 c-5 -13 -196 -493 -425 -1066 -229 -574 -416 -1046 -416
-1048 0 -3 70 -3 156 -2 l157 3 112 295 112 295 479 3 480 2 116 -297 115
-298 157 -3 c86 -1 156 1 156 5 0 5 -190 486 -422 1070 l-423 1063 -173 0
c-170 0 -173 0 -181 -22z m365 -770 c101 -260 184 -474 184 -475 0 -2 -166 -3
-370 -3 -225 0 -370 4 -370 9 0 7 244 653 351 930 5 13 12 21 16 18 3 -4 89
-219 189 -479z"/>
        <path d="M2487 6789 c-3 -110 -10 -206 -15 -211 -8 -8 -614 5 -727 15 -19 2
-20 -5 -23 -121 l-3 -124 38 6 c61 10 667 26 675 18 3 -4 -9 -59 -28 -122
-131 -433 -343 -781 -681 -1117 l-132 -132 50 -16 c28 -10 79 -36 114 -60 l64
-43 88 92 c180 185 374 475 521 778 l57 117 393 1 c239 0 392 -4 392 -9 0 -6
-14 -52 -31 -103 -54 -163 -174 -394 -254 -490 l-23 -28 -33 37 c-58 67 -122
175 -187 318 -35 77 -65 141 -66 143 -2 1 -44 -15 -94 -35 -106 -44 -104 -28
-32 -181 52 -108 132 -238 209 -337 26 -33 50 -65 54 -71 11 -18 -158 -128
-296 -194 -135 -64 -327 -130 -479 -164 l-27 -6 43 -63 c24 -34 54 -82 66
-107 12 -25 24 -46 25 -48 1 -1 67 20 146 49 253 90 461 200 611 322 32 26 60
47 63 47 2 0 35 -20 72 -44 154 -99 367 -189 619 -261 85 -25 157 -45 160 -45
2 0 4 8 4 18 0 29 64 174 97 223 l32 46 -97 6 c-132 8 -291 40 -447 91 -121
40 -275 108 -275 122 0 3 13 23 29 43 153 194 301 512 384 826 l24 90 -498 -3
c-275 -2 -499 -2 -499 0 0 3 13 42 28 89 16 46 37 117 47 157 l19 72 330 0
c332 0 857 -15 909 -26 l27 -6 0 126 c0 126 0 126 -22 121 -47 -11 -536 -25
-864 -25 l-341 0 24 140 c25 150 31 171 64 212 12 14 19 30 16 36 -4 5 -68 12
-144 15 -76 3 -145 8 -154 12 -14 5 -17 -16 -22 -196z"/>
        <path d="M1693 3013 c-42 -93 -60 -151 -79 -263 -23 -136 -15 -308 19 -415 82
-252 297 -413 653 -486 146 -30 452 -37 644 -15 251 29 498 84 698 154 162 57
191 76 229 147 96 177 101 352 17 610 -34 103 -144 335 -159 335 -6 0 -46 -52
-87 -115 l-76 -116 78 -162 c78 -160 140 -324 140 -367 0 -29 -74 -61 -243
-105 -630 -163 -1211 -144 -1521 49 -195 122 -285 310 -256 539 6 47 21 122
34 166 l23 80 -26 10 c-14 5 -33 12 -42 15 -12 5 -23 -9 -46 -61z"/>
        <path d="M2649 1598 c-40 -51 -77 -98 -81 -105 -8 -10 120 -131 217 -206 32
-24 47 -15 114 64 95 113 94 110 30 175 -65 67 -182 164 -197 164 -6 0 -43
-42 -83 -92z"/>
    </g>
</svg>
