<svg xmlns="http://www.w3.org/2000/svg" width="85.998" height="55">
    <g fill-rule="evenodd" clip-rule="evenodd" fill="#FFF">
        <path d="M52.007 22.968s.105 1.404-1.01.672c-1.115-.732-3.283-2.775-2.829-8.288C48.623 9.838 53.111.817 56.991.125c3.88-.693 6.19 1.476 6.475 7.74 0 0 .152 3.255.332 3.669.18.415.328.363.622.087.295-.277 1.714-1.757 3.22-5.019 1.506-3.262 3.116-6.004 3.609-3.07 0 0 .234 2.846-.805 11.881 0 0-.555 6.609-.446 8.336.109 1.727.964-.231 1.387-1.018.424-.788 4.933-12.352 11.755-7.906 0 0 3.196 2.856 2.827 6.231 0 0-.256 1.297-2.277-.223-2.02-1.521-8.628-1.28-14.43 15.581 0 0-5.406 16.4-6.583 17.954-1.178 1.555-1.589-.649-1.62-1.366-.031-.717.34-5.799 1.481-11.501 1.141-5.702 2.825-19.734 2.626-21.571-.199-1.836-1.485.892-1.701 1.324-.216.433-3.132 5.374-6.4 17.649-3.268 12.276-6.136 14.99-7.197 15.55-1.061.56-2.236-.12-1.478-3.883.758-3.763 4.237-16.106 5.378-19.864 1.142-3.758 5.727-18.728 3.893-25.556 0 0-1.404-2.408-4.338 4.056-2.932 6.466-1.399 12.769-1.314 13.762zM21.088 30.843c-6.249 2.455-6.741 12.112-6.791 14.702-.049 2.59-1.637 1.101-1.637 1.101-2.729-3.735-.072-9.893-.072-9.893 3.713-8.618 8.133-11.71 9.163-12.912 1.03-1.203.108-2.176-.515-3.522-.623-1.346.286-1.731.286-1.731 9.193-6.054 5.842-14.452 5.842-14.452-2.141-4.388-5.856-2.846-5.856-2.846-6.382 3.245-7.491 12.174-7.598 13.44-.107 1.266-.086 1.107-.264 1.514-.179.407-.944.489-.944.489C1.004 19.706.072 28.593.002 31.819c-.069 3.226 1.355 4.648 2.279 4.702.924.055 1.01-1.44 1.01-1.44-.063-3.496.889-5.392.889-5.392 3.867-9.153 9.002-9.336 9.554-9.281.552.055.756.496.356.89s-3.726 3.891-6.39 8.749c-2.664 4.858-4.117 11.038-2.166 16.156 1.952 5.118 5.938 5.579 7.554 5.081 1.616-.499 2.177.352 2.177.352 1.263 1.62 3.775 3.747 6.361 3.176 2.586-.572 4.151-4.462 3.353-5.43-.797-.968-2.466.714-2.872.953-.406.238-2.075 1.89-3.173.937-1.098-.953.079-1.857.079-1.857 6.948-4.241 7.793-12.359 7.793-12.359.238-8.564-5.718-6.213-5.718-6.213zm-1.979-17.581s.594-3.869 2.857-6.258c2.263-2.389 3.331.483 1.703 4.08-1.626 3.597-5.323 5.292-4.56 2.178zm2.941 26.224c-1.111 4.034-2.57 5.52-3.612 6.29-1.042.77-.972-1.943-.972-1.943.966-7.221 3.61-8.482 3.61-8.482 1.164-.77 2.085.101.974 4.135z"/>
        <path d="M44.895 21.979c-8.947 7.803-9.263-.042-9.223-1.602.039-1.561 1.72-2.012 5.945-5.539 4.225-3.527 5.428-7.292 5.428-7.292C48.817-.772 42.513.578 42.513.578c-9.636 2.833-12.459 14.907-12.459 14.907l-.302 1.228c-.326 1.766-1.865 1.725-3.177 2.628s-.761 3.674-.738 3.773c.024.099.434 1.002 1.441.198 1.008-.804 1.822-.448 1.807.001-.014.449.112 3.42.112 3.42 1.308 9.91 9.781 5.989 10.654 5.451.873-.538 1.019.077 1.019.307 0 .23-.019 6.129-1.738 10.935-1.719 4.806-2.747 7.039-4.888 7.271-2.141.232-3.44-2.656-2.054-6.161 1.385-3.505 1.128-5.105 1.128-5.105-.758-3.212-2.72-.176-2.72-.176-2.378 3.665-1.52 9.388-1.52 9.388 1.71 10.006 8.741 5.202 8.741 5.202 12.764-10.247 8.853-30.765 8.518-31.93-.339-1.163-1.442.064-1.442.064zm-8.949-8.399s1.127-5.043 5.37-7.878c0 0 3.115-1.991 2.664 1.58 0 0-.185 2.854-6.128 6.751 0 0-2.393 2.077-1.906-.453z"/>
    </g>
</svg>
