<?xml version="1.0" encoding="utf-8"?>
<!-- Svg Vector Icons : http://www.onlinewebfonts.com/icon -->
<!DOCTYPE svg PUBLIC "-//W3C//DTD SVG 1.1//EN" "http://www.w3.org/Graphics/SVG/1.1/DTD/svg11.dtd">
<svg version="1.1" xmlns="http://www.w3.org/2000/svg" xmlns:xlink="http://www.w3.org/1999/xlink" x="0px" y="0px" viewBox="0 0 1000 1000" enable-background="new 0 0 1000 1000" xml:space="preserve">
<metadata> Svg Vector Icons : http://www.onlinewebfonts.com/icon </metadata>
<g><path d="M193.8,990h612.5C910.4,990,990,910.4,990,806.3V696l-55.1,55.1c-18.4,18.4-42.9,36.8-67.4,42.9v12.3c0,36.8-24.5,61.3-61.3,61.3H193.8c-36.8,0-61.3-24.5-61.3-61.3V193.8c0-36.8,24.5-61.3,61.3-61.3h612.5c36.8,0,61.3,24.5,61.3,61.3V206c24.5,6.1,49,24.5,67.4,42.9L990,304V193.8C990,89.6,910.4,10,806.3,10H193.8C89.6,10,10,89.6,10,193.8v612.5C10,910.4,89.6,990,193.8,990L193.8,990z M781.8,677.6c24.5,12.3,49,6.1,67.4-12.3l122.5-122.5c12.3-12.3,18.4-24.5,18.4-42.9c0-18.4-6.1-30.6-18.4-42.9L849.1,334.6c-18.4-18.4-42.9-24.5-67.4-12.3c-24.5,6.1-36.7,30.6-36.8,55.1v61.3H561.2c-36.8,0-61.3,24.5-61.3,61.3c0,36.8,24.5,61.3,61.3,61.3H745v61.3C745,647,757.3,671.5,781.8,677.6L781.8,677.6z"/></g>
</svg>