<?xml version="1.0" encoding="utf-8"?>
<!-- Svg Vector Icons : http://www.onlinewebfonts.com/icon -->
<!DOCTYPE svg PUBLIC "-//W3C//DTD SVG 1.1//EN" "http://www.w3.org/Graphics/SVG/1.1/DTD/svg11.dtd">
<svg version="1.1" xmlns="http://www.w3.org/2000/svg" xmlns:xlink="http://www.w3.org/1999/xlink" x="0px" y="0px" viewBox="0 0 1000 1000" enable-background="new 0 0 1000 1000" xml:space="preserve">
<metadata> Svg Vector Icons : http://www.onlinewebfonts.com/icon </metadata>
<g><path d="M818.4,317.5L686.8,185.9L291.9,580.8h0v0l0,0l0,0l-63.3,194.9l194.9-63.3l0,0l0,0h0v0L818.4,317.5z"/><path d="M863.1,272.8L731.5,141.2l86.6-86.6l131.6,131.6L863.1,272.8z"/><path d="M775.7,990H224.3c-57.2,0-111-22.3-151.5-62.8C32.3,886.8,10,833.1,10,775.7V224.3C10,167,32.3,113.2,72.8,72.8C113.2,32.3,167,10,224.3,10H500c24.6,0,44.5,19.9,44.5,44.5s-20,44.5-44.5,44.5H224.3c-33.4,0-64.9,13-88.5,36.7c-23.7,23.7-36.7,55.1-36.7,88.5v551.5c0,33.5,13,64.9,36.6,88.4c23.7,23.7,55.1,36.8,88.6,36.8h551.5c33.5,0,64.9-13,88.4-36.7c23.7-23.7,36.8-55.1,36.8-88.5V500c0-24.6,19.9-44.5,44.5-44.5c24.6,0,44.5,19.9,44.5,44.5v275.7c0,57.2-22.3,111.1-62.8,151.5C886.8,967.7,833,990,775.7,990z"/></g>
</svg>