<?xml version="1.0" encoding="UTF-8"?>
<!-- Created with Inkscape (http://www.inkscape.org/) -->
<svg width="700" height="700" version="1.1" viewBox="0 0 185.21 185.21" xmlns="http://www.w3.org/2000/svg">
    <g transform="matrix(.26458 0 0 .26458 -25.897 16.71)" fill="#fdc30b">
        <circle transform="matrix(.7071 -.7071 .7071 .7071 -69.348 394.58)" cx="441.62" cy="281" r="99.515"/>
        <path d="m428.91 469.25c-4.512-0.301-9.052-0.767-13.494-1.387l10.617-76.048c2.621 0.367 5.308 0.642 7.987 0.821zm37.8-1.236-10.142-76.112c2.655-0.355 5.317-0.807 7.914-1.346l15.604 75.183c-4.397 0.914-8.897 1.679-13.376 2.275zm-88.141-9.146c-4.257-1.509-8.512-3.193-12.646-5.007l30.838-70.319c2.437 1.068 4.947 2.061 7.457 2.95zm137.71-4.557-30.415-70.502c2.455-1.06 4.894-2.219 7.249-3.443l35.411 68.134c-3.985 2.07-8.104 4.025-12.245 5.811zm-183.37-19.092c-3.664-2.585-7.288-5.342-10.771-8.195l48.633-59.419c2.08 1.702 4.24 3.345 6.422 4.886zm227.32-7.481-48.304-59.69c2.08-1.682 4.126-3.463 6.081-5.29l52.436 56.094c-3.283 3.067-6.72 6.057-10.213 8.886zm-264.85-27.529c-2.839-3.48-5.589-7.108-8.176-10.786l62.806-44.174c1.541 2.191 3.178 4.352 4.867 6.421zm300-9.845-62.529-44.564c1.547-2.171 3.034-4.425 4.422-6.706l65.581 39.94c-2.345 3.85-4.859 7.662-7.474 11.33zm-326.76-33.99c-1.798-4.122-3.47-8.368-4.97-12.618l72.414-25.539c0.886 2.512 1.873 5.019 2.934 7.451zm350.6-11.563-72.26-25.97c0.9-2.504 1.719-5.071 2.434-7.633l73.955 20.659c-1.215 4.342-2.603 8.698-4.129 12.944zm-364.51-37.947c-0.609-4.437-1.067-8.968-1.36-13.463l76.622-5.003c0.175 2.685 0.448 5.382 0.81 8.021zm375.1-12.353-76.592-5.442c0.189-2.663 0.285-5.378 0.285-8.069v-0.351h76.785v0.351c0 4.497-0.161 9.042-0.478 13.511zm-299.07-28.647-76.096-10.274c0.601-4.449 1.372-8.94 2.291-13.348l75.167 15.684c-0.547 2.624-1.005 5.295-1.362 7.938zm220.47-7.527c-0.535-2.609-1.172-5.229-1.894-7.786l73.901-20.847c1.224 4.338 2.304 8.779 3.211 13.2zm-212.33-21.763-70.456-30.527c1.789-4.128 3.756-8.251 5.845-12.255l68.072 35.526c-1.24 2.374-2.404 4.814-3.461 7.256zm202.2-6.878c-1.232-2.378-2.56-4.734-3.949-7.003l65.485-40.095c2.342 3.825 4.581 7.794 6.652 11.795zm-186.38-19.168-59.602-48.407c2.833-3.488 5.832-6.921 8.911-10.204l55.99 52.546c-1.832 1.953-3.615 3.994-5.299 6.065zm168.82-5.749c-1.832-1.965-3.753-3.885-5.708-5.705l52.317-56.206c3.28 3.054 6.499 6.271 9.567 9.564zm-146.55-15.12-44.423-62.628c3.683-2.613 7.496-5.117 11.334-7.443l39.798 65.666c-2.266 1.373-4.524 2.856-6.709 4.405zm122.92-4.194c-2.287-1.399-4.645-2.727-7.006-3.947l35.235-68.222c3.993 2.061 7.972 4.302 11.826 6.658zm-95.933-9.867-25.826-72.312c4.227-1.509 8.575-2.888 12.923-4.096l20.568 73.979c-2.584 0.716-5.163 1.536-7.665 2.429zm68.033-2.317c-2.549-0.72-5.163-1.355-7.769-1.888l15.401-75.227c4.429 0.907 8.876 1.987 13.215 3.211zm-38.259-3.897-5.275-76.602c4.352-0.301 8.777-0.452 13.153-0.452h0.277v76.785h-0.277c-2.623 0-5.274 0.09-7.878 0.269z"/>
    </g>
</svg>
